<svg id="vuesax_bold_sms" data-name="vuesax/bold/sms" xmlns="http://www.w3.org/2000/svg" width="24" height="24" viewBox="0 0 24 24">
  <g id="sms">
    <path id="Vector" d="M24,0V24H0V0Z" fill="#00bac7" opacity="0"/>
    <path id="Vector-2" data-name="Vector" d="M15,17H5a5.153,5.153,0,0,1-3.625-1.188A4.976,4.976,0,0,1,0,12V5A4.976,4.976,0,0,1,1.375,1.188,5.153,5.153,0,0,1,5,0H15a5.152,5.152,0,0,1,3.625,1.188A4.977,4.977,0,0,1,20,5v7a4.977,4.977,0,0,1-1.375,3.813A5.152,5.152,0,0,1,15,17ZM5,4.747a.758.758,0,0,0-.59.283.766.766,0,0,0,.12,1.06l3.13,2.5A3.7,3.7,0,0,0,10,9.38a3.736,3.736,0,0,0,2.34-.79l3.13-2.5a.764.764,0,0,0,.11-1.06A.722.722,0,0,0,15,4.744a.746.746,0,0,0-.469.166L11.4,7.41a2.387,2.387,0,0,1-2.811,0L5.46,4.91A.722.722,0,0,0,5,4.747Z" transform="translate(2 3.5)" fill="#00bac7"/>
  </g>
</svg>
