<svg xmlns="http://www.w3.org/2000/svg" width="26.178" height="26.178" viewBox="0 0 26.178 26.178">
  <g id="vuesax_bold_trend-up" data-name="vuesax/bold/trend-up" transform="translate(0 0)">
    <g id="trend-up" transform="translate(0 0)">
      <path id="Vector" d="M15.467,21.815H6.338C2.369,21.815,0,19.442,0,15.467V6.338C0,2.369,2.369,0,6.338,0h9.14a6.4,6.4,0,0,1,4.658,1.682A6.387,6.387,0,0,1,21.8,6.338v9.14C21.8,19.446,19.435,21.815,15.467,21.815ZM9.577,9.431a.755.755,0,0,0-.535.222L5.792,12.9a.766.766,0,0,0,0,1.08.756.756,0,0,0,.534.219.731.731,0,0,0,.535-.219l2.6-2.6,1.113,1.658a.72.72,0,0,0,.556.338c.026,0,.053,0,.078,0a.749.749,0,0,0,.533-.222L14.7,10.2v.2a.763.763,0,1,0,1.527,0h-.011V8.366a.7.7,0,0,0-.054-.295.769.769,0,0,0-.415-.414.934.934,0,0,0-.295-.055H13.428a.764.764,0,0,0,0,1.528h.2l-2.3,2.3L10.21,9.774a.721.721,0,0,0-.557-.339Q9.615,9.431,9.577,9.431Z" transform="translate(2.182 2.182)" fill="#1faab4"/>
      <path id="Vector-2" data-name="Vector" d="M26.178,0V26.178H0V0Z" transform="translate(26.178 26.178) rotate(180)" fill="#1faab4" opacity="0"/>
    </g>
  </g>
</svg>
