<svg id="vuesax_bold_wallet" data-name="vuesax/bold/wallet" xmlns="http://www.w3.org/2000/svg" width="46.891" height="46.891" viewBox="0 0 46.891 46.891">
  <g id="wallet">
    <path id="Vector" d="M46.891,0V46.891H0V0Z" fill="#1faab4" opacity="0"/>
    <path id="Vector-2" data-name="Vector" d="M5.87,2.931a.976.976,0,0,1-.957.977H2.06A2.022,2.022,0,0,1,.009,2.13,1.951,1.951,0,0,1,.576.567,1.857,1.857,0,0,1,1.943,0h2.95A.979.979,0,0,1,5.87.977Z" transform="translate(36.038 25.674)" fill="#1faab4"/>
    <path id="Vector-3" data-name="Vector" d="M29.307,15.2a4.258,4.258,0,0,0,4.162,2.97h1.7a1.96,1.96,0,0,1,1.954,1.954V20.5a7.363,7.363,0,0,1-7.346,7.346H7.346A7.363,7.363,0,0,1,0,20.5V7.346A7.3,7.3,0,0,1,2.931,1.485,7.242,7.242,0,0,1,7.346,0h22.43a7.363,7.363,0,0,1,7.346,7.346v.86a1.96,1.96,0,0,1-1.954,1.954H33.175a3.894,3.894,0,0,0-2.813,1.172A3.946,3.946,0,0,0,29.307,15.2Z" transform="translate(4.785 13.463)" fill="#1faab4"/>
    <path id="Vector-4" data-name="Vector" d="M15.981,6.858.976,6.838A.971.971,0,0,1,.292,5.178L3.457,1.993a6.887,6.887,0,0,1,9.691,0l3.419,3.458c.02.02.059.039.078.059A.806.806,0,0,1,15.981,6.858Z" transform="translate(15.005 3.908)" fill="#1faab4"/>
  </g>
</svg>
