<svg xmlns="http://www.w3.org/2000/svg" width="26.178" height="26.178" viewBox="0 0 26.178 26.178">
  <g id="vuesax_bold_money-send" data-name="vuesax/bold/money-send" transform="translate(0 0)">
    <g id="money-send" transform="translate(0 0)">
      <path id="Vector" d="M26.178,0V26.178H0V0Z" fill="#1faab4" opacity="0"/>
      <path id="Vector-2" data-name="Vector" d="M.534,1.658l.556.2V0H.764A.816.816,0,0,0,0,.851C0,1.44.164,1.527.534,1.658Z" transform="translate(11.18 10.09)" fill="#1faab4"/>
      <path id="Vector-3" data-name="Vector" d="M.327,1.854A.809.809,0,0,0,1.091,1C1.091.414.927.327.556.2L0,0V1.854Z" transform="translate(13.907 14.235)" fill="#1faab4"/>
      <path id="Vector-4" data-name="Vector" d="M10.733,21.466a10.733,10.733,0,1,1,7-18.869l-2.2,2.2a.8.8,0,1,0,1.138,1.137l2.2-2.2a10.731,10.731,0,0,1-8.136,17.731ZM8.05,11.806a.811.811,0,0,0-.8.816,2.644,2.644,0,0,0,2.6,2.683h.086v.269a.816.816,0,0,0,.8.806.806.806,0,0,0,.8-.806v-.269h.323a2.408,2.408,0,0,0,2.361-2.447,2.191,2.191,0,0,0-1.609-2.318l-1.074-.376V7.782h.086a1.035,1.035,0,0,1,.988,1.073.806.806,0,0,0,.8.8.815.815,0,0,0,.8-.8,2.645,2.645,0,0,0-2.6-2.684h-.086V5.9a.806.806,0,0,0-.8-.8.815.815,0,0,0-.8.8v.258H9.606A2.408,2.408,0,0,0,7.245,8.608a2.213,2.213,0,0,0,1.61,2.318l1.073.376v2.383H9.842a1.034,1.034,0,0,1-.987-1.073A.807.807,0,0,0,8.05,11.806Z" transform="translate(1.811 1.811)" fill="#1faab4"/>
      <path id="Vector-5" data-name="Vector" d="M5.487.055A.946.946,0,0,0,5.181,0H.818A.824.824,0,0,0,0,.818a.824.824,0,0,0,.818.818H3.207L1.385,3.458A11.569,11.569,0,0,1,2.541,4.614L4.363,2.792V5.181A.818.818,0,0,0,6,5.181V.818A.822.822,0,0,0,5.934.5.853.853,0,0,0,5.487.055Z" transform="translate(18.816 1.363)" fill="#1faab4"/>
    </g>
  </g>
</svg>
